<?xml version="1.0" standalone="no"?>
<!DOCTYPE svg PUBLIC "-//W3C//DTD SVG 20010904//EN"
 "http://www.w3.org/TR/2001/REC-SVG-20010904/DTD/svg10.dtd">
<svg version="1.0" xmlns="http://www.w3.org/2000/svg"
 width="700.000000pt" height="700.000000pt" viewBox="0 0 700.000000 700.000000"
 preserveAspectRatio="xMidYMid meet">
<metadata>
Created by potrace 1.11, written by Peter Selinger 2001-2013
</metadata>
<g transform="translate(0.000000,700.000000) scale(0.100000,-0.100000)"
fill="#000000" stroke="none">
<path d="M3467 6564 c-1 -1 -67 -4 -147 -8 -80 -3 -156 -8 -170 -11 -14 -2
-51 -7 -83 -10 -93 -8 -300 -46 -416 -76 -157 -40 -388 -114 -406 -130 -5 -5
-15 -9 -23 -9 -7 0 -38 -11 -68 -25 -30 -14 -57 -25 -60 -25 -3 0 -72 -34
-154 -75 -843 -423 -1472 -1151 -1766 -2043 -39 -118 -93 -322 -108 -407 -46
-260 -59 -388 -60 -570 l-1 -110 325 0 325 0 1 40 c4 105 16 277 19 288 2 7 7
36 10 66 7 72 39 231 69 344 105 392 305 774 575 1097 48 58 254 267 306 310
111 94 335 260 350 260 3 0 31 17 62 37 73 47 283 151 388 193 203 82 486 158
650 175 33 4 62 8 66 10 25 16 408 24 574 12 566 -40 1146 -275 1591 -646 543
-454 896 -1083 998 -1781 14 -93 25 -226 30 -360 l1 -45 329 -1 328 -1 -6 156
c-4 86 -8 163 -11 171 -2 8 -6 46 -10 83 -3 37 -8 78 -11 90 -2 12 -6 39 -9
62 -3 22 -15 85 -26 140 -118 583 -395 1142 -794 1601 -151 173 -357 364 -530
492 -38 29 -79 59 -90 68 -31 24 -244 158 -310 194 -334 185 -740 330 -1075
385 -19 3 -46 8 -60 10 -61 13 -78 15 -140 20 -36 4 -72 8 -80 10 -13 4 -75 7
-328 19 -29 1 -54 1 -55 0z"/>
<path d="M3349 5466 c-2 -2 -40 -6 -84 -10 -108 -9 -124 -11 -364 -62 -51 -11
-221 -68 -316 -107 -175 -71 -350 -170 -510 -286 -115 -84 -145 -111 -285
-251 -324 -324 -542 -725 -644 -1185 -15 -69 -17 -85 -31 -190 -3 -27 -9 -61
-12 -75 -4 -14 -7 -663 -8 -1443 l-1 -1417 30 -1 c38 -1 4745 -1 4767 0 14 1
15 135 14 1413 -2 777 -5 1433 -9 1458 -11 75 -16 108 -22 148 -9 57 -43 214
-53 242 -5 14 -17 52 -27 85 -51 175 -164 413 -280 591 -320 487 -779 829
-1338 995 -55 16 -113 32 -130 35 -16 3 -32 7 -36 9 -6 4 -76 16 -177 30 -23
3 -57 8 -75 11 -40 6 -403 15 -409 10z"/>
<path d="M0 1605 c0 -641 3 -1165 8 -1166 45 -5 627 -2 635 3 9 5 12 302 12
1168 l1 1160 -328 0 -328 0 0 -1165z"/>
<path d="M6345 1610 c0 -866 3 -1163 12 -1168 8 -5 575 -8 633 -3 7 1 10 397
10 1166 l0 1165 -328 0 -328 0 1 -1160z"/>
</g>
</svg>
